<svg
  xmlns="http://www.w3.org/2000/svg"
  xmlns:xlink="http://www.w3.org/1999/xlink"
  width="48px" height="57px">
  <path fill-rule="evenodd"  fill="#aab3c0"
        d="M31.815,33.763 L31.815,29.383 C34.002,27.675 34.771,24.470 34.911,21.686 C36.289,20.765 36.957,18.652 36.957,16.941 C36.957,15.582 36.550,14.182 35.502,13.344 C37.171,9.415 36.881,6.452 35.982,4.690 C34.210,1.216 29.419,-0.013 25.566,-0.013 C21.744,-0.013 16.924,1.246 15.183,4.596 C13.832,4.534 12.552,4.939 11.815,6.062 C10.527,8.032 11.711,11.138 12.619,13.307 C11.505,14.139 11.064,15.595 11.064,16.994 C11.064,18.689 11.748,20.783 13.095,21.686 C13.183,23.429 13.525,25.371 14.293,26.940 C14.296,26.948 14.300,26.954 14.303,26.960 C14.903,28.179 15.614,28.931 16.192,29.383 C16.192,29.618 16.192,29.824 16.192,30.033 C16.192,32.150 16.192,32.930 16.192,32.990 C16.192,33.233 16.192,33.483 16.192,33.763 C11.366,35.756 2.855,39.546 -0.008,42.540 C4.966,50.617 13.845,56.017 24.003,56.017 C34.161,56.017 43.039,50.617 48.014,42.542 C44.812,39.168 34.549,34.892 31.815,33.763 Z"/>
</svg>
